<?xml version="1.0" encoding="utf-8"?><!-- Uploaded to: SVG Repo, www.svgrepo.com, Generator: SVG Repo Mixer Tools -->
<svg fill="#000000" width="800px" height="800px" viewBox="0 0 24 24" id="facebook-circle" data-name="Flat Color" xmlns="http://www.w3.org/2000/svg" class="icon flat-color"><circle id="primary" cx="12" cy="12" r="10" style="fill: rgb(0, 0, 0);"></circle><path id="secondary" d="M17,9a1,1,0,0,1-1,1H14a1,1,0,0,0-1,1v2h2a1,1,0,0,1,0,2H13v7c-.33,0-.66.05-1,.05s-.67,0-1-.05V15H9a1,1,0,0,1,0-2h2V11a3,3,0,0,1,3-3h2A1,1,0,0,1,17,9Z" style="fill: rgb(44, 169, 188);"></path></svg>